<?xml version="1.0" encoding="utf-8"?>
<!-- Generator: Adobe Illustrator 24.0.2, SVG Export Plug-In . SVG Version: 6.00 Build 0)  -->
<svg version="1.1" id="Layer_1" xmlns="http://www.w3.org/2000/svg" xmlns:xlink="http://www.w3.org/1999/xlink" x="0px" y="0px"
	 viewBox="0 0 20.8 19.7" style="enable-background:new 0 0 20.8 19.7;" xml:space="preserve">
<style type="text/css">
	.st0{fill:none;stroke:#000000;stroke-miterlimit:10;}
	.st1{fill:#2188FF;}
</style>
<path class="st0" d="M-13.6,0.8"/>
<path class="st1" d="M20.8,6.5c0-0.3-0.1-0.5-0.4-0.6l-9.6-5.8C10.6,0,10.3,0,10,0.1L0.4,5.6C0.1,5.8,0,6,0,6.3c0,0,0,0,0,0h0v6.9h0
	c0,0.3,0.1,0.5,0.4,0.6l9.7,5.8c0.1,0.1,0.3,0.1,0.4,0.1c0.1,0,0.3,0,0.4-0.1l9.6-5.5c0.2-0.1,0.4-0.4,0.4-0.6c0,0,0,0,0,0h0
	L20.8,6.5L20.8,6.5z M19.3,12l-3.6-2.2l3.6-2.1V12z M11.2,2.1l7.4,4.4L14.2,9l-3.1-1.8V2.1z M9.7,2v5.1l-3,1.7L2.2,6.3L9.7,2z
	 M1.5,7.6l3.6,2.2l-3.6,2.1V7.6z M9.7,17.6l-7.4-4.4l4.4-2.5l3.1,1.8V17.6z M10.4,11.2L8.1,9.8l2.3-1.3l2.3,1.4L10.4,11.2z
	 M11.2,17.6v-5.1l3-1.7l4.4,2.6L11.2,17.6z"/>
</svg>
